<svg width="49" height="49" viewBox="0 0 49 49" fill="none" xmlns="http://www.w3.org/2000/svg">
<path d="M6.47413 24.6929V24.1938C9.55194 23.8814 11.0587 22.3103 11.0587 19.2938V13.7904C11.0587 10.4401 12.2531 9.08031 15.2053 9.08031H16.0414V6.125H14.8899C9.95312 6.125 7.62563 8.44944 7.62563 13.328V17.9952C7.62563 21.3456 6.47412 22.4542 3.0625 22.4542V26.4324C6.47412 26.4324 7.62563 27.5411 7.62563 30.8914V35.5587C7.62563 40.4373 9.95006 42.7617 14.8899 42.7617H16.0414V39.8094H15.2053C12.2531 39.8094 11.0587 38.4497 11.0587 35.0993V29.5929C11.0587 26.5794 9.55194 25.0084 6.47413 24.6929ZM42.5259 24.1938V24.6929C39.4481 25.0084 37.9413 26.5794 37.9413 29.5929V35.0993C37.9413 38.4497 36.7469 39.8094 33.7947 39.8094H32.9586V42.7617H34.1101C39.0499 42.7617 41.3744 40.4373 41.3744 35.5587V30.8914C41.3744 27.5411 42.5259 26.4324 45.9375 26.4324V22.4542C42.5259 22.4542 41.3744 21.3456 41.3744 17.9952V13.328C41.3744 8.44944 39.0469 6.125 34.1101 6.125H32.9586V9.07725H33.7947C36.7469 9.07725 37.9413 10.437 37.9413 13.7874V19.2938C37.9413 22.3073 39.4481 23.8783 42.5259 24.1938Z" fill="black"/>
</svg>
