<svg width="47" height="47" viewBox="0 0 47 47" fill="none" xmlns="http://www.w3.org/2000/svg">
<path d="M6.38098 23.4632V22.9999C9.30396 22.7099 10.7349 21.2518 10.7349 18.4521V13.3445C10.7349 10.235 11.8692 8.97297 14.6729 8.97297H15.4669V6.23012H14.3733C9.68496 6.23012 7.47455 8.38745 7.47455 12.9153V17.247C7.47455 20.3565 6.38098 21.3854 3.14099 21.3854V25.0776C6.38098 25.0776 7.47455 26.1065 7.47455 29.216V33.5477C7.47455 38.0756 9.68205 40.2329 14.3733 40.2329H15.4669V37.4929H14.6729C11.8692 37.4929 10.7349 36.2309 10.7349 33.1214V28.0109C10.7349 25.214 9.30396 23.7559 6.38098 23.4632ZM40.619 22.9999V23.4632C37.6961 23.7559 36.2651 25.214 36.2651 28.0109V33.1214C36.2651 36.2309 35.1308 37.4929 32.3271 37.4929H31.5331V40.2329H32.6267C37.318 40.2329 39.5255 38.0756 39.5255 33.5477V29.216C39.5255 26.1065 40.619 25.0776 43.859 25.0776V21.3854C40.619 21.3854 39.5255 20.3565 39.5255 17.247V12.9153C39.5255 8.38745 37.315 6.23012 32.6267 6.23012H31.5331V8.97012H32.3271C35.1308 8.97012 36.2651 10.2321 36.2651 13.3416V18.4521C36.2651 21.249 37.6961 22.7071 40.619 22.9999Z" fill="white"/>
</svg>
