<svg width="47" height="47" viewBox="0 0 47 47" fill="none" xmlns="http://www.w3.org/2000/svg">
<path d="M17.2585 14.3421C17.3937 14.21 17.501 14.0531 17.5741 13.8805C17.6473 13.7078 17.685 13.5228 17.685 13.3359C17.685 13.1491 17.6473 12.964 17.5741 12.7914C17.501 12.6187 17.3937 12.4619 17.2585 12.3297C17.1233 12.1976 16.9628 12.0928 16.7861 12.0213C16.6095 11.9498 16.4201 11.913 16.2289 11.913C16.0377 11.913 15.8484 11.9498 15.6717 12.0213C15.495 12.0928 15.3345 12.1976 15.1993 12.3297L5.01982 22.2779C4.88439 22.4099 4.77695 22.5667 4.70364 22.7394C4.63033 22.912 4.59259 23.0971 4.59259 23.2841C4.59259 23.471 4.63033 23.6561 4.70364 23.8288C4.77695 24.0014 4.88439 24.1582 5.01982 24.2903L15.1993 34.2384C15.4724 34.5053 15.8427 34.6552 16.2289 34.6552C16.6151 34.6552 16.9854 34.5053 17.2585 34.2384C17.5316 33.9716 17.685 33.6096 17.685 33.2322C17.685 32.8548 17.5316 32.4929 17.2585 32.226L8.10567 23.2841L17.2585 14.3421ZM29.7415 14.3421C29.4684 14.0753 29.315 13.7133 29.315 13.3359C29.315 12.9585 29.4684 12.5966 29.7415 12.3297C30.0145 12.0629 30.3849 11.913 30.7711 11.913C31.1572 11.913 31.5276 12.0629 31.8006 12.3297L41.9802 22.2779C42.1156 22.4099 42.223 22.5667 42.2963 22.7394C42.3696 22.912 42.4074 23.0971 42.4074 23.2841C42.4074 23.471 42.3696 23.6561 42.2963 23.8288C42.223 24.0014 42.1156 24.1582 41.9802 24.2903L31.8006 34.2384C31.5276 34.5053 31.1572 34.6552 30.7711 34.6552C30.3849 34.6552 30.0145 34.5053 29.7415 34.2384C29.4684 33.9716 29.315 33.6096 29.315 33.2322C29.315 32.8548 29.4684 32.4929 29.7415 32.226L38.8943 23.2841L29.7415 14.3421Z" fill="white"/>
</svg>
