<svg width="49" height="49" viewBox="0 0 49 49" fill="none" xmlns="http://www.w3.org/2000/svg">
<path d="M17.9279 14.8654C18.0702 14.723 18.1832 14.554 18.2602 14.368C18.3373 14.182 18.3769 13.9826 18.3769 13.7813C18.3769 13.5799 18.3373 13.3806 18.2602 13.1945C18.1832 13.0085 18.0702 12.8395 17.9279 12.6971C17.7855 12.5548 17.6165 12.4418 17.4305 12.3648C17.2445 12.2877 17.0451 12.2481 16.8437 12.2481C16.6424 12.2481 16.443 12.2877 16.257 12.3648C16.071 12.4418 15.902 12.5548 15.7596 12.6971L5.04087 23.4159C4.89827 23.5581 4.78513 23.7271 4.70793 23.9131C4.63074 24.0992 4.591 24.2986 4.591 24.5C4.591 24.7014 4.63074 24.9009 4.70793 25.0869C4.78513 25.2729 4.89827 25.4419 5.04087 25.5841L15.7596 36.3029C16.0471 36.5904 16.4371 36.7519 16.8437 36.7519C17.2504 36.7519 17.6403 36.5904 17.9279 36.3029C18.2154 36.0154 18.3769 35.6254 18.3769 35.2188C18.3769 34.8121 18.2154 34.4222 17.9279 34.1346L8.29018 24.5L17.9279 14.8654ZM31.0721 14.8654C30.7846 14.5779 30.6231 14.1879 30.6231 13.7813C30.6231 13.3746 30.7846 12.9847 31.0721 12.6971C31.3596 12.4096 31.7496 12.2481 32.1562 12.2481C32.5629 12.2481 32.9528 12.4096 33.2404 12.6971L43.9591 23.4159C44.1017 23.5581 44.2149 23.7271 44.292 23.9131C44.3692 24.0992 44.409 24.2986 44.409 24.5C44.409 24.7014 44.3692 24.9009 44.292 25.0869C44.2149 25.2729 44.1017 25.4419 43.9591 25.5841L33.2404 36.3029C32.9528 36.5904 32.5629 36.7519 32.1562 36.7519C31.7496 36.7519 31.3596 36.5904 31.0721 36.3029C30.7846 36.0154 30.6231 35.6254 30.6231 35.2188C30.6231 34.8121 30.7846 34.4222 31.0721 34.1346L40.7098 24.5L31.0721 14.8654Z" fill="black"/>
</svg>
