<svg width="47" height="47" viewBox="0 0 47 47" fill="none" xmlns="http://www.w3.org/2000/svg">
<g clip-path="url(#clip0_15_13)">
<path d="M0.232544 11.9148C0.232544 10.4071 0.84539 8.96119 1.93626 7.89511C3.02714 6.82903 4.50668 6.23011 6.0494 6.23011H40.9506C42.4933 6.23011 43.9728 6.82903 45.0637 7.89511C46.1546 8.96119 46.7674 10.4071 46.7674 11.9148V34.6534C46.7674 36.1611 46.1546 37.607 45.0637 38.6731C43.9728 39.7392 42.4933 40.3381 40.9506 40.3381H6.0494C4.50668 40.3381 3.02714 39.7392 1.93626 38.6731C0.84539 37.607 0.232544 36.1611 0.232544 34.6534V11.9148ZM6.0494 9.07244C5.27804 9.07244 4.53827 9.3719 3.99283 9.90494C3.4474 10.438 3.14097 11.1609 3.14097 11.9148V12.5316L23.5 24.4693L43.859 12.5316V11.9148C43.859 11.1609 43.5526 10.438 43.0071 9.90494C42.4617 9.3719 41.7219 9.07244 40.9506 9.07244H6.0494ZM43.859 15.8457L30.1661 23.8753L43.859 32.1095V15.8457ZM43.7601 35.3896L27.3566 25.5238L23.5 27.7835L19.6434 25.5238L3.23986 35.3867C3.40513 35.9916 3.77012 36.5262 4.27814 36.9075C4.78617 37.2889 5.40881 37.4957 6.0494 37.4957H40.9506C41.5908 37.4958 42.2131 37.2895 42.7211 36.9087C43.2291 36.5278 43.5943 35.9939 43.7601 35.3896ZM3.14097 32.1095L16.8339 23.8753L3.14097 15.8457V32.1095Z" fill="white"/>
</g>
<defs>
<clipPath id="clip0_15_13">
<rect width="46.5349" height="45.4773" fill="white" transform="translate(0.232544 0.545456)"/>
</clipPath>
</defs>
</svg>
