<svg width="49" height="49" viewBox="0 0 49 49" fill="none" xmlns="http://www.w3.org/2000/svg">
<path d="M0 12.25C0 10.6255 0.645311 9.06763 1.79397 7.91897C2.94263 6.77031 4.50055 6.125 6.125 6.125H42.875C44.4995 6.125 46.0574 6.77031 47.206 7.91897C48.3547 9.06763 49 10.6255 49 12.25V36.75C49 38.3745 48.3547 39.9324 47.206 41.081C46.0574 42.2297 44.4995 42.875 42.875 42.875H6.125C4.50055 42.875 2.94263 42.2297 1.79397 41.081C0.645311 39.9324 0 38.3745 0 36.75V12.25ZM6.125 9.1875C5.31277 9.1875 4.53382 9.51016 3.95949 10.0845C3.38516 10.6588 3.0625 11.4378 3.0625 12.25V12.9146L24.5 25.7771L45.9375 12.9146V12.25C45.9375 11.4378 45.6148 10.6588 45.0405 10.0845C44.4662 9.51016 43.6872 9.1875 42.875 9.1875H6.125ZM45.9375 16.4854L31.5192 25.137L45.9375 34.0091V16.4854ZM45.8334 37.5432L28.5609 26.9133L24.5 29.3479L20.4391 26.9133L3.16663 37.5401C3.34065 38.1918 3.72497 38.7678 4.25991 39.1787C4.79484 39.5896 5.45047 39.8124 6.125 39.8125H42.875C43.5491 39.8126 44.2044 39.5902 44.7393 39.1799C45.2742 38.7696 45.6588 38.1943 45.8334 37.5432ZM3.0625 34.0091L17.4808 25.137L3.0625 16.4854V34.0091Z" fill="black"/>
</svg>
