<svg width="47" height="47" viewBox="0 0 47 47" fill="none" xmlns="http://www.w3.org/2000/svg">
<path d="M24.5297 4.2346C24.3946 4.10225 24.2341 3.99725 24.0574 3.9256C23.8808 3.85396 23.6914 3.81708 23.5001 3.81708C23.3088 3.81708 23.1194 3.85396 22.9427 3.9256C22.766 3.99725 22.6056 4.10225 22.4705 4.2346L5.01991 21.2886C4.88495 21.4208 4.77799 21.5777 4.70512 21.7504C4.63226 21.923 4.59494 22.108 4.59528 22.2948V42.1911C4.59528 42.568 4.74849 42.9295 5.02121 43.196C5.29393 43.4625 5.66381 43.6122 6.04949 43.6122H19.1374C19.5231 43.6122 19.893 43.4625 20.1657 43.196C20.4384 42.9295 20.5916 42.568 20.5916 42.1911V30.8217H26.4085V42.1911C26.4085 42.568 26.5617 42.9295 26.8344 43.196C27.1072 43.4625 27.477 43.6122 27.8627 43.6122H40.9507C41.3363 43.6122 41.7062 43.4625 41.9789 43.196C42.2517 42.9295 42.4049 42.568 42.4049 42.1911V22.2948C42.4052 22.108 42.3679 21.923 42.295 21.7504C42.2222 21.5777 42.1152 21.4208 41.9802 21.2886L38.0422 17.4429V8.08311C38.0422 7.7062 37.889 7.34472 37.6163 7.0782C37.3436 6.81168 36.9737 6.66195 36.588 6.66195H33.6796C33.2939 6.66195 32.924 6.81168 32.6513 7.0782C32.3786 7.34472 32.2254 7.7062 32.2254 8.08311V11.7582L24.5297 4.2346ZM7.50371 40.7699V22.8831L23.5001 7.25031L39.4964 22.8831V40.7699H29.3169V29.4006C29.3169 29.0237 29.1637 28.6622 28.891 28.3957C28.6183 28.1291 28.2484 27.9794 27.8627 27.9794H19.1374C18.7517 27.9794 18.3819 28.1291 18.1091 28.3957C17.8364 28.6622 17.6832 29.0237 17.6832 29.4006V40.7699H7.50371Z" fill="white"/>
</svg>
