<svg width="49" height="49" viewBox="0 0 49 49" fill="none" xmlns="http://www.w3.org/2000/svg">
<path d="M25.5841 3.50962C25.4419 3.36702 25.2729 3.25388 25.0869 3.17668C24.9008 3.09949 24.7014 3.05975 24.5 3.05975C24.2986 3.05975 24.0992 3.09949 23.9131 3.17668C23.7271 3.25388 23.5581 3.36702 23.4159 3.50962L5.04088 21.8846C4.89877 22.0271 4.78614 22.1962 4.70942 22.3822C4.6327 22.5682 4.59339 22.7675 4.59375 22.9687V44.4062C4.59375 44.8124 4.75508 45.2018 5.04225 45.489C5.32941 45.7762 5.71889 45.9375 6.125 45.9375H19.9063C20.3124 45.9375 20.7018 45.7762 20.989 45.489C21.2762 45.2018 21.4375 44.8124 21.4375 44.4062V32.1562H27.5625V44.4062C27.5625 44.8124 27.7238 45.2018 28.011 45.489C28.2982 45.7762 28.6876 45.9375 29.0938 45.9375H42.875C43.2811 45.9375 43.6706 45.7762 43.9578 45.489C44.2449 45.2018 44.4063 44.8124 44.4063 44.4062V22.9687C44.4066 22.7675 44.3673 22.5682 44.2906 22.3822C44.2139 22.1962 44.1012 22.0271 43.9591 21.8846L39.8125 17.7411V7.65624C39.8125 7.25013 39.6512 6.86065 39.364 6.57348C39.0768 6.28632 38.6874 6.12499 38.2813 6.12499H35.2188C34.8126 6.12499 34.4232 6.28632 34.136 6.57348C33.8488 6.86065 33.6875 7.25013 33.6875 7.65624V11.6161L25.5841 3.50962ZM7.65625 42.875V23.6027L24.5 6.75893L41.3438 23.6027V42.875H30.625V30.625C30.625 30.2189 30.4637 29.8294 30.1765 29.5422C29.8893 29.2551 29.4999 29.0937 29.0938 29.0937H19.9063C19.5001 29.0937 19.1107 29.2551 18.8235 29.5422C18.5363 29.8294 18.375 30.2189 18.375 30.625V42.875H7.65625Z" fill="black"/>
</svg>
