<svg width="47" height="47" viewBox="0 0 47 47" fill="none" xmlns="http://www.w3.org/2000/svg">
<path d="M23.5 22.304C25.8141 22.304 28.0334 21.4056 29.6697 19.8065C31.306 18.2074 32.2253 16.0385 32.2253 13.777C32.2253 11.5155 31.306 9.34662 29.6697 7.7475C28.0334 6.14838 25.8141 5.25 23.5 5.25C21.1859 5.25 18.9666 6.14838 17.3303 7.7475C15.694 9.34662 14.7747 11.5155 14.7747 13.777C14.7747 16.0385 15.694 18.2074 17.3303 19.8065C18.9666 21.4056 21.1859 22.304 23.5 22.304ZM29.3169 13.777C29.3169 15.2847 28.704 16.7306 27.6132 17.7967C26.5223 18.8627 25.0427 19.4616 23.5 19.4616C21.9573 19.4616 20.4778 18.8627 19.3869 17.7967C18.296 16.7306 17.6832 15.2847 17.6832 13.777C17.6832 12.2693 18.296 10.8234 19.3869 9.75733C20.4778 8.69125 21.9573 8.09233 23.5 8.09233C25.0427 8.09233 26.5223 8.69125 27.6132 9.75733C28.704 10.8234 29.3169 12.2693 29.3169 13.777ZM40.9506 36.5156C40.9506 39.358 38.0422 39.358 38.0422 39.358H8.95787C8.95787 39.358 6.04944 39.358 6.04944 36.5156C6.04944 33.6733 8.95787 25.1463 23.5 25.1463C38.0422 25.1463 40.9506 33.6733 40.9506 36.5156ZM38.0422 36.5043C38.0393 35.805 37.5943 33.7017 35.6224 31.7746C33.7261 29.9214 30.1574 27.9886 23.5 27.9886C16.8426 27.9886 13.274 29.9214 11.3777 31.7746C9.40577 33.7017 8.96369 35.805 8.95787 36.5043H38.0422Z" fill="white"/>
</svg>
